# xmcd CD database file
#
# Track frame offsets:
#	150
#	16772
#	35825
#	51405
#	70742
#	89715
#	103105
#	121617
#	138255
#	155200
#	174690
#	191487
#	210095
#	227825
#	248532
#	271505
#	287387
#	302750
#
# Disc length: 4281 seconds
#
# Revision: 4
# Processed by: cddbd v1.5.2PL0 Copyright (c) Steve Scherf et al.
# Submitted via: jetAudio 7
#
DISCID=f110b712
DTITLE=DESTINY'S CHILD - Survivor
DYEAR=1900
DGENRE=Blues
TTITLE0=Independent women
TTITLE1=Survivor
TTITLE2=Bootylicious
TTITLE3=Nasty girl
TTITLE4=Fancy
TTITLE5=Apple pie a la mode
TTITLE6=Sexy daddy
TTITLE7=Perfect man
TTITLE8=Independent women
TTITLE9=Happy face
TTITLE10=Dance with me
TTITLE11=My heart still beats
TTITLE12=Emtion
TTITLE13=Brown eyes
TTITLE14=Dangerously in love
TTITLE15=The story of beauty
TTITLE16=Gospel medley
TTITLE17=Outro (dc-3) thank you
EXTD=YEAR 2001
EXTT0=B.Knowles, S.Barnes, C.Rodney, J.olivier
EXTT1=
EXTT2=
EXTT3=
EXTT4=
EXTT5=
EXTT6=
EXTT7=
EXTT8=
EXTT9=
EXTT10=
EXTT11=
EXTT12=
EXTT13=
EXTT14=
EXTT15=
EXTT16=
EXTT17=
PLAYORDER=
